<?xml version="1.0"?>
<svg xmlns="http://www.w3.org/2000/svg" xmlns:xlink="http://www.w3.org/1999/xlink" xmlns:svgjs="http://svgjs.com/svgjs" version="1.1" width="512" height="512" x="0" y="0" viewBox="0 0 485.171 485.171" style="enable-background:new 0 0 512 512" xml:space="preserve" class=""><g>
<g xmlns="http://www.w3.org/2000/svg">
	<g>
		<path d="M361.875,175.088c-9.666,0-17.534,7.862-17.534,17.528c0,9.667,7.868,17.529,17.534,17.529s17.534-7.863,17.534-17.529    C379.41,182.95,371.542,175.088,361.875,175.088z" fill="#10c9c3" data-original="#000000" style="" class=""/>
		<path d="M461.749,7.281c-3.76-0.77-7.567,1.224-9.07,4.762l-23.414,55.023c-1.112-0.095-2.215-0.143-3.312-0.143h-293.34    c-0.111,0-0.227,0-0.338,0L105.887,4.93c-1.498-3.544-5.3-5.542-9.07-4.762c-3.771,0.77-6.481,4.087-6.481,7.937v286.221    c0,23.314,18.969,42.277,42.277,42.277h104.44c-22.275,13.7-37.394,37.821-38.544,65.554c-7.958,8.253-41.27,39.957-84.617,41.613    c-28.994,1.092-56.917-11.459-83.173-37.342c-3.185-3.143-8.311-3.101-11.454,0.085c-3.132,3.185-3.095,8.316,0.09,11.454    c29.563,29.146,61.715,43.221,95.159,41.992c37.225-1.419,67.215-21.437,83.827-35.49v52.603c0,4.477,3.633,8.1,8.1,8.1    c4.472,0,8.1-3.623,8.1-8.1v-71.556c0-24.812,14.054-46.38,34.594-57.248v128.793c0,4.478,3.628,8.1,8.101,8.1    c4.472,0,8.1-3.622,8.1-8.1V342.324c4.498-0.991,9.154-1.556,13.948-1.556c6.418,0,12.599,0.976,18.452,2.711v133.576    c0,4.477,3.628,8.1,8.1,8.1s8.1-3.623,8.1-8.1V350.92c18.057,11.507,30.091,31.651,30.091,54.596v71.545    c0,4.478,3.628,8.1,8.1,8.1s8.101-3.622,8.101-8.1v-71.545c0-29.141-15.536-54.664-38.713-68.918h104.44    c23.314,0,42.277-18.964,42.277-42.277V15.218C468.23,11.368,465.519,8.057,461.749,7.281z M196.69,226.346    c-18.599,0-33.734-15.13-33.734-33.729c0-18.599,15.135-33.729,33.734-33.729c18.6,0,33.734,15.129,33.734,33.729    C230.424,211.216,215.295,226.346,196.69,226.346z M281.535,313.542c-17.866,0-32.4-14.528-32.4-32.4c0-4.477,3.628-8.1,8.101-8.1    c4.472,0,8.1,3.623,8.1,8.1c0,6.075,3.401,11.316,8.358,14.091c-0.147-0.628-0.259-1.266-0.259-1.94v-25.824l-16.801-1.244    c-4.456-0.333-7.8-4.219-7.478-8.681c0.337-4.467,4.245-7.778,8.68-7.478l23.699,1.756l23.698-1.756    c4.562-0.248,8.358,3.021,8.681,7.478c0.321,4.462-3.017,8.348-7.478,8.681l-16.802,1.244v25.824c0,0.675-0.105,1.312-0.258,1.94    c4.957-2.774,8.358-8.016,8.358-14.091c0-4.477,3.628-8.1,8.1-8.1s8.1,3.623,8.1,8.1    C313.934,299.014,299.406,313.542,281.535,313.542z M361.875,226.346c-18.595,0-33.734-15.13-33.734-33.729    c0-18.599,15.14-33.729,33.734-33.729c18.6,0,33.734,15.129,33.734,33.729C395.61,211.216,380.475,226.346,361.875,226.346z" fill="#10c9c3" data-original="#000000" style="" class=""/>
		<path d="M196.69,175.088c-9.666,0-17.534,7.862-17.534,17.528c0,9.667,7.868,17.529,17.534,17.529    c9.667,0,17.534-7.863,17.534-17.529C214.224,182.95,206.356,175.088,196.69,175.088z" fill="#10c9c3" data-original="#000000" style="" class=""/>
	</g>
</g>
<g xmlns="http://www.w3.org/2000/svg">
</g>
<g xmlns="http://www.w3.org/2000/svg">
</g>
<g xmlns="http://www.w3.org/2000/svg">
</g>
<g xmlns="http://www.w3.org/2000/svg">
</g>
<g xmlns="http://www.w3.org/2000/svg">
</g>
<g xmlns="http://www.w3.org/2000/svg">
</g>
<g xmlns="http://www.w3.org/2000/svg">
</g>
<g xmlns="http://www.w3.org/2000/svg">
</g>
<g xmlns="http://www.w3.org/2000/svg">
</g>
<g xmlns="http://www.w3.org/2000/svg">
</g>
<g xmlns="http://www.w3.org/2000/svg">
</g>
<g xmlns="http://www.w3.org/2000/svg">
</g>
<g xmlns="http://www.w3.org/2000/svg">
</g>
<g xmlns="http://www.w3.org/2000/svg">
</g>
<g xmlns="http://www.w3.org/2000/svg">
</g>
</g></svg>
